<svg xmlns="http://www.w3.org/2000/svg" xmlns:xlink="http://www.w3.org/1999/xlink" width="179.001" height="46.5" viewBox="0 0 179.001 46.5">
  <defs>
    <linearGradient id="linear-gradient" x1="-2.639" y1="3.752" x2="-2.081" y2="4.271" gradientUnits="objectBoundingBox">
      <stop offset="0" stop-color="#3480b9"/>
      <stop offset="0.476" stop-color="#5bc8eb"/>
      <stop offset="0.999" stop-color="#44a16a"/>
    </linearGradient>
    <linearGradient id="linear-gradient-2" x1="114.965" y1="52.809" x2="114.406" y2="52.314" xlink:href="#linear-gradient"/>
  </defs>
  <g id="Group_22725" data-name="Group 22725" transform="translate(-44.999 -35.5)">
    <g id="Group_22354" data-name="Group 22354" transform="translate(25.313 5.471)">
      <g id="Group_7701" data-name="Group 7701" transform="translate(19.687 30.714)">
        <g id="Group_7699" data-name="Group 7699" transform="translate(0 2.848)">
          <path id="Path_2652" data-name="Path 2652" d="M98.184,106.657a8.481,8.481,0,0,1-5.843-2.386,8.342,8.342,0,0,1-2.068-9.3l.037-.086L99.98,73.9a7.815,7.815,0,0,1,5.81-4.634,8.444,8.444,0,0,1,7.658,2.567l12.378,13.083a2.593,2.593,0,1,1-3.768,3.565L109.68,75.4a3.28,3.28,0,0,0-2.957-1.03,2.589,2.589,0,0,0-1.977,1.579l-.037.086L95.044,97.008a3.177,3.177,0,0,0,.873,3.505,3.118,3.118,0,0,0,3.515.673l6.272-3a2.593,2.593,0,1,1,2.237,4.679l-6.272,3A8.055,8.055,0,0,1,98.184,106.657Z" transform="translate(-89.649 -69.134)" fill="url(#linear-gradient)"/>
        </g>
        <g id="Group_7700" data-name="Group 7700" transform="translate(15.719)">
          <path id="Path_2653" data-name="Path 2653" d="M145.277,101.747a8.506,8.506,0,0,1-6.175-2.7L126.725,85.963a2.593,2.593,0,0,1,3.768-3.565l12.378,13.083a3.277,3.277,0,0,0,2.957,1.03,2.59,2.59,0,0,0,1.978-1.579L157.5,72.164a3.17,3.17,0,0,0-.865-3.527,3.119,3.119,0,0,0-3.515-.673l-6.272,3a2.593,2.593,0,1,1-2.237-4.679l6.271-3a8.515,8.515,0,0,1,11.4,10.9l-9.694,22.769a7.805,7.805,0,0,1-5.824,4.665A8.25,8.25,0,0,1,145.277,101.747Z" transform="translate(-126.015 -62.545)" fill="url(#linear-gradient-2)"/>
        </g>
      </g>
      <line id="Line_1006" data-name="Line 1006" y2="41.02" transform="translate(89.166 30.029)" fill="none" stroke="#e2e7f1" stroke-width="1"/>
    </g>
    <g id="text" transform="translate(-277 1)">
      <text id="Trivgo" transform="translate(405 70)" fill="#50899e" font-size="30" font-family="Poppins-SemiBold, Poppins" font-weight="600"><tspan x="0" y="0">Trivgo</tspan></text>
    </g>
  </g>
</svg>
